<svg width="256" height="256" viewBox="0 0 256 256" fill="none" xmlns="http://www.w3.org/2000/svg">
<path d="M153.657 89.6569L65.6577 177.657C64.1574 179.157 62.1226 180 60.001 180C57.8794 180 55.8446 179.157 54.3443 177.657L10.3433 133.659C8.84289 132.159 7.99988 130.124 7.99969 128.002C7.99951 125.881 8.84217 123.846 10.3423 122.345C11.8424 120.845 13.8772 120.002 15.9988 120.002C18.1205 120.002 20.1554 120.844 21.6558 122.344L60.0005 160.686L142.342 78.3424C143.843 76.842 145.878 75.9991 148 75.9991C150.121 75.9991 152.156 76.842 153.657 78.3424C155.157 79.8428 156 81.8778 156 83.9996C156 86.1215 155.157 88.1565 153.657 89.6569ZM245.657 78.3424C244.156 76.8426 242.121 76.0001 240 76.0001C237.878 76.0001 235.843 76.8426 234.342 78.3424L152.001 160.686L134.283 142.97C132.782 141.47 130.747 140.628 128.626 140.628C126.504 140.628 124.469 141.471 122.969 142.971C121.469 144.472 120.626 146.507 120.627 148.628C120.627 150.75 121.47 152.785 122.97 154.285L146.344 177.657C147.845 179.157 149.879 180 152.001 180C154.123 180 156.157 179.157 157.658 177.657L245.657 89.6569C247.157 88.1564 248 86.1215 248 83.9996C248 81.8778 247.157 79.8429 245.657 78.3424Z" fill="#54656F"/>
</svg>
