<svg width="141" height="103" viewBox="0 0 141 103" fill="none" xmlns="http://www.w3.org/2000/svg">
<g clip-path="url(#clip0_4_13)">
<path fill-rule="evenodd" clip-rule="evenodd" d="M70.5 0C109.436 0 141 23.0573 141 51.5C141 79.9428 109.436 103 70.5 103C31.5639 103 0 79.9428 0 51.5C0 23.0573 31.5639 0 70.5 0ZM70.5 12.875C41.2979 12.875 17.625 30.168 17.625 51.5C17.625 72.8319 41.2979 90.125 70.5 90.125C99.702 90.125 123.375 72.8319 123.375 51.5C123.375 30.168 99.702 12.875 70.5 12.875ZM96.9375 57.9375C96.9375 68.6038 85.101 77.25 70.5 77.25C56.4205 77.25 44.9115 69.2104 44.1074 59.0723L44.0625 57.9375H96.9375ZM52.875 32.1875C57.742 32.1875 61.6875 35.0697 61.6875 38.625C61.6875 42.1803 57.742 45.0625 52.875 45.0625C48.008 45.0625 44.0625 42.1803 44.0625 38.625C44.0625 35.0697 48.008 32.1875 52.875 32.1875ZM88.125 32.1875C92.9921 32.1875 96.9375 35.0697 96.9375 38.625C96.9375 42.1803 92.9921 45.0625 88.125 45.0625C83.2579 45.0625 79.3125 42.1803 79.3125 38.625C79.3125 35.0697 83.2579 32.1875 88.125 32.1875Z" fill="#54656F"/>
</g>
<defs>
<clipPath id="clip0_4_13">
<rect width="141" height="103" fill="white"/>
</clipPath>
</defs>
</svg>
